<?xml version="1.0" encoding="utf-8"?>
<!-- Generator: Adobe Illustrator 28.1.0, SVG Export Plug-In . SVG Version: 6.00 Build 0)  -->
<svg version="1.1" id="レイヤー_1" xmlns="http://www.w3.org/2000/svg" xmlns:xlink="http://www.w3.org/1999/xlink" x="0px"
	 y="0px" viewBox="0 0 311.5 43.2" style="enable-background:new 0 0 311.5 43.2;" xml:space="preserve">
<path d="M0,21.7c0,12,9.7,21.5,21.7,21.5c5.3,0,10.5-1.9,14.6-5.8c0.4-0.4,0.5-1.2,0.1-1.6l-2.8-2.7c-0.4-0.3-0.9-0.4-1.4,0.1
	c-2.9,2.2-5.9,4-10.3,4c-8.6,0-15.1-7.1-15.1-15.5S13.1,5.9,21.7,5.9c3.7,0,7.6,1.6,10.4,4c0.5,0.5,1.1,0.5,1.5,0l2.6-2.7
	c0.5-0.5,0.5-1.2-0.1-1.7C32.1,2,27.7,0,21.7,0C9.7,0,0,9.7,0,21.7z"/>
<path d="M53.6,21.7c0-8.5,7-15.7,15.5-15.7c8.6,0,15.6,7.1,15.6,15.7c0,8.6-7,15.5-15.6,15.5C60.6,37.2,53.6,30.2,53.6,21.7z
	 M47.6,21.7c0,12,9.5,21.5,21.5,21.5s21.6-9.5,21.6-21.5S81.1,0,69.1,0S47.6,9.7,47.6,21.7z"/>
<path d="M105.3,41.5c0,0.6,0.5,1.1,1.1,1.1h3.8c0.7,0,1.1-0.5,1.1-1.1V12.2h0.1l26,31h1.6c0.6,0,1.1-0.5,1.1-1.1V1.7
	c0-0.6-0.5-1.1-1.1-1.1h-3.8c-0.7,0-1.1,0.5-1.1,1.1v28.4H134L107.9,0h-1.5c-0.6,0-1.1,0.5-1.1,1.1V41.5z"/>
<path d="M154.7,21.7c0,12,9.7,21.5,21.7,21.5c5.3,0,10.5-1.9,14.6-5.8c0.4-0.4,0.5-1.2,0.1-1.6l-2.8-2.7c-0.4-0.3-0.9-0.4-1.4,0.1
	c-2.9,2.2-5.9,4-10.3,4c-8.6,0-15.1-7.1-15.1-15.5s6.5-15.6,15.1-15.6c3.7,0,7.6,1.6,10.4,4c0.5,0.5,1.1,0.5,1.5,0l2.6-2.7
	c0.5-0.5,0.5-1.2-0.1-1.7C186.8,2,182.5,0,176.4,0C164.4,0,154.7,9.7,154.7,21.7z"/>
<path d="M205.6,41.5c0,0.6,0.5,1.1,1.1,1.1h24c0.7,0,1.1-0.5,1.1-1.1v-3.3c0-0.6-0.5-1.1-1.1-1.1h-19V24.1h16c0.6,0,1.1-0.5,1.1-1.1
	v-3.4c0-0.6-0.5-1.1-1.1-1.1h-16V6.2h19c0.7,0,1.1-0.5,1.1-1.1V1.7c0-0.6-0.5-1.1-1.1-1.1h-24c-0.7,0-1.1,0.5-1.1,1.1V41.5z"/>
<path d="M253.1,21.5V6.6h8.3c4.1,0,7.6,3.1,7.6,7.2c0,4.3-3.5,7.7-7.6,7.7H253.1z M246.9,41.5c0,0.6,0.5,1.1,1.1,1.1h3.9
	c0.6,0,1.1-0.5,1.1-1.1V27.4h8.7c7.3,0,13.4-6.1,13.4-13.5c0-7.3-6.1-13.3-13.4-13.3H248c-0.7,0-1.1,0.5-1.1,1.1V41.5z"/>
<path d="M294.3,41.5c0,0.6,0.5,1.1,1.1,1.1h4c0.6,0,1.1-0.5,1.1-1.1V6.2h9.8c0.7,0,1.1-0.5,1.1-1.1V1.7c0-0.6-0.5-1.1-1.1-1.1h-25.8
	c-0.7,0-1.1,0.5-1.1,1.1v3.4c0,0.6,0.5,1.1,1.1,1.1h9.8V41.5z"/>
</svg>
