<?xml version="1.0" encoding="utf-8"?>
<!-- Generator: Adobe Illustrator 28.1.0, SVG Export Plug-In . SVG Version: 6.00 Build 0)  -->
<svg version="1.1" id="レイヤー_1" xmlns="http://www.w3.org/2000/svg" xmlns:xlink="http://www.w3.org/1999/xlink" x="0px"
	 y="0px" viewBox="0 0 174 24.5" style="enable-background:new 0 0 174 24.5;" xml:space="preserve">
<path d="M0,12.3c0,6.8,5.5,12.2,12.3,12.2c3,0,5.9-1.1,8.3-3.3c0.2-0.2,0.3-0.7,0-0.9L19,18.7c-0.2-0.2-0.5-0.2-0.8,0
	C16.6,20,14.8,21,12.3,21c-4.9,0-8.6-4-8.6-8.8c0-4.8,3.7-8.8,8.5-8.8c2.1,0,4.3,0.9,5.9,2.3C18.5,6,18.8,6,19,5.6l1.5-1.5
	c0.3-0.3,0.3-0.7,0-1c-2.3-2-4.8-3.2-8.2-3.2C5.5,0,0,5.5,0,12.3z"/>
<path d="M30.4,12.3c0-4.8,4-8.9,8.8-8.9c4.9,0,8.8,4,8.8,8.9c0,4.9-4,8.8-8.8,8.8C34.3,21.1,30.4,17.1,30.4,12.3z M27,12.3
	c0,6.8,5.4,12.2,12.2,12.2c6.8,0,12.2-5.4,12.2-12.2C51.4,5.5,46,0,39.2,0C32.4,0,27,5.5,27,12.3z"/>
<path d="M59.7,23.5c0,0.3,0.3,0.6,0.6,0.6h2.1c0.4,0,0.6-0.3,0.6-0.6V6.9h0l14.8,17.5h0.9c0.3,0,0.6-0.3,0.6-0.6V1
	c0-0.3-0.3-0.6-0.6-0.6h-2.2C76.2,0.3,76,0.6,76,1v16.1h0L61.2,0h-0.9c-0.3,0-0.6,0.3-0.6,0.6V23.5z"/>
<path d="M92.7,23.5c0,0.3,0.3,0.6,0.6,0.6h2.2c0.3,0,0.6-0.3,0.6-0.6v-20h5.5c0.4,0,0.6-0.3,0.6-0.6V1c0-0.3-0.3-0.6-0.6-0.6H87.1
	c-0.4,0-0.6,0.3-0.6,0.6v1.9c0,0.3,0.3,0.6,0.6,0.6h5.5V23.5z"/>
<path d="M111.9,16l4.1-9.3h0.2l4.2,9.3H111.9z M105.6,24.1h2.1c0.4,0,0.7-0.3,0.8-0.5c0.7-1.6,1.4-3.1,2.1-4.7h11.1l2.1,4.7
	c0.1,0.3,0.4,0.5,0.8,0.5h2.1c0.5,0,0.8-0.4,0.6-0.9L116.9,0.4c-0.1-0.2-0.4-0.4-0.6-0.4H116c-0.2,0-0.5,0.2-0.6,0.4L105,23.3
	C104.8,23.7,105.1,24.1,105.6,24.1z"/>
<path d="M132.2,12.3c0,6.8,5.5,12.2,12.3,12.2c3,0,6-1.1,8.3-3.3c0.2-0.2,0.3-0.7,0-0.9l-1.6-1.5c-0.2-0.2-0.5-0.2-0.8,0
	c-1.6,1.3-3.4,2.2-5.8,2.2c-4.9,0-8.6-4-8.6-8.8c0-4.8,3.7-8.8,8.5-8.8c2.1,0,4.3,0.9,5.9,2.3c0.3,0.3,0.6,0.3,0.8,0l1.5-1.5
	c0.3-0.3,0.3-0.7,0-1c-2.3-2-4.8-3.2-8.2-3.2C137.7,0,132.2,5.5,132.2,12.3z"/>
<path d="M164.3,23.5c0,0.3,0.3,0.6,0.6,0.6h2.2c0.3,0,0.6-0.3,0.6-0.6v-20h5.5c0.4,0,0.6-0.3,0.6-0.6V1c0-0.3-0.3-0.6-0.6-0.6h-14.6
	c-0.4,0-0.6,0.3-0.6,0.6v1.9c0,0.3,0.3,0.6,0.6,0.6h5.5V23.5z"/>
</svg>
