<?xml version="1.0" encoding="utf-8"?>
<!-- Generator: Adobe Illustrator 28.1.0, SVG Export Plug-In . SVG Version: 6.00 Build 0)  -->
<svg version="1.1" id="レイヤー_1" xmlns="http://www.w3.org/2000/svg" xmlns:xlink="http://www.w3.org/1999/xlink" x="0px"
	 y="0px" viewBox="0 0 203.9 43.2" style="enable-background:new 0 0 203.9 43.2;" xml:space="preserve">
<path d="M0,41.5c0,0.6,0.5,1.1,1.1,1.1h24c0.7,0,1.1-0.5,1.1-1.1v-3.3c0-0.6-0.5-1.1-1.1-1.1h-19V24.1h16c0.6,0,1.1-0.5,1.1-1.1
	v-3.4c0-0.6-0.5-1.1-1.1-1.1h-16V6.2h19c0.7,0,1.1-0.5,1.1-1.1V1.7c0-0.6-0.5-1.1-1.1-1.1h-24C0.5,0.6,0,1.1,0,1.7V41.5z"/>
<path d="M54.1,42.5c0.2,0.4,0.6,0.7,1,0.7h0.6c0.5,0,0.8-0.3,1-0.7L75.1,2.2c0.4-0.8-0.1-1.6-1-1.6h-4.3c-0.5,0-0.9,0.4-1,0.7
	L55.6,31h-0.4L42.1,1.3c-0.1-0.3-0.5-0.7-1-0.7h-4.3c-0.9,0-1.4,0.8-1,1.6L54.1,42.5z"/>
<path d="M87.2,41.5c0,0.6,0.5,1.1,1.1,1.1h24c0.7,0,1.1-0.5,1.1-1.1v-3.3c0-0.6-0.5-1.1-1.1-1.1h-19V24.1h16c0.6,0,1.1-0.5,1.1-1.1
	v-3.4c0-0.6-0.5-1.1-1.1-1.1h-16V6.2h19c0.7,0,1.1-0.5,1.1-1.1V1.7c0-0.6-0.5-1.1-1.1-1.1h-24c-0.7,0-1.1,0.5-1.1,1.1V41.5z"/>
<path d="M128.5,41.5c0,0.6,0.5,1.1,1.1,1.1h3.8c0.7,0,1.1-0.5,1.1-1.1V12.2h0.1l26,31h1.6c0.6,0,1.1-0.5,1.1-1.1V1.7
	c0-0.6-0.5-1.1-1.1-1.1h-3.8c-0.7,0-1.1,0.5-1.1,1.1v28.4h-0.1L131.2,0h-1.5c-0.6,0-1.1,0.5-1.1,1.1V41.5z"/>
<path d="M186.8,41.5c0,0.6,0.5,1.1,1.1,1.1h4c0.6,0,1.1-0.5,1.1-1.1V6.2h9.8c0.7,0,1.1-0.5,1.1-1.1V1.7c0-0.6-0.5-1.1-1.1-1.1H177
	c-0.7,0-1.1,0.5-1.1,1.1v3.4c0,0.6,0.5,1.1,1.1,1.1h9.8V41.5z"/>
</svg>
