<?xml version="1.0" encoding="utf-8"?>
<!-- Generator: Adobe Illustrator 28.1.0, SVG Export Plug-In . SVG Version: 6.00 Build 0)  -->
<svg version="1.1" id="レイヤー_1" xmlns="http://www.w3.org/2000/svg" xmlns:xlink="http://www.w3.org/1999/xlink" x="0px"
	 y="0px" viewBox="0 0 656.1 64.8" style="enable-background:new 0 0 656.1 64.8;" xml:space="preserve">
<style type="text/css">
	.st0{fill:#FFFFFF;}
</style>
<path class="st0" d="M0,62.2c0,0.9,0.7,1.7,1.7,1.7h32c1,0,1.7-0.8,1.7-1.7v-5c0-0.9-0.7-1.7-1.7-1.7H9.4V2.6c0-0.9-0.8-1.7-1.7-1.7
	H1.7C0.7,0.9,0,1.7,0,2.6V62.2z"/>
<path class="st0" d="M49.4,62.2c0,0.9,0.7,1.7,1.7,1.7h36c1,0,1.7-0.8,1.7-1.7v-5c0-0.9-0.7-1.7-1.7-1.7H58.7V36.2h24
	c0.9,0,1.7-0.7,1.7-1.7v-5c0-0.9-0.8-1.7-1.7-1.7h-24V9.4h28.4c1,0,1.7-0.8,1.7-1.7v-5c0-0.9-0.7-1.7-1.7-1.7h-36
	c-1,0-1.7,0.8-1.7,1.7V62.2z"/>
<path class="st0" d="M115.6,62.2c0,0.9,0.8,1.7,1.7,1.7h5.9c0.9,0,1.7-0.8,1.7-1.7V9.4h14.7c1,0,1.7-0.8,1.7-1.7v-5
	c0-0.9-0.7-1.7-1.7-1.7h-38.7c-1,0-1.7,0.8-1.7,1.7v5c0,0.9,0.7,1.7,1.7,1.7h14.7V62.2z"/>
<path class="st0" d="M152.2,25.4c0.6,0.6,1.3,0.6,2.2-0.1c2.6-2.3,7.8-8.3,7.8-16.5c0-6.9-3.7-8.8-6.8-8.8c-3.2,0-5.8,2.4-5.8,5.6
	c0,3.1,2.5,5.5,5.6,5.5c0.9,0,1.7-0.2,1.9-0.3c0,6.5-4.9,10.4-5.8,11.2c-0.7,0.7-0.9,1.6-0.4,2.2L152.2,25.4z"/>
<path class="st0" d="M174.3,57.7c1.4,1.4,8.4,7.1,19.4,7.1c11.7,0,20.1-7.6,20.1-17c0-11-8.9-15.9-19.4-20.2
	c-7.5-3.1-11.4-6.2-11.4-11.3c0-3.3,2.6-8.1,10.2-8.1c5.2,0,11.5,4.1,12.1,4.5c1.3,0.8,2.4,0.3,3.2-0.9c0.7-1.1,1.5-2.3,2.2-3.4
	c0.9-1.4,0.2-2.6-0.5-3.1c-0.9-0.6-7.6-5.3-16.6-5.3c-14.3,0-19.7,9.6-19.7,16.6c0,10.4,7.2,15.2,16.4,19.1
	c8.9,3.7,13.6,7.1,13.6,12.5c0,4.6-4,8.4-10.2,8.4c-6.9,0-13.9-5.8-14.4-6.2c-1-0.8-2.2-0.5-3.1,0.7c-0.8,1.2-1.5,2.5-2.3,3.7
	C172.9,56.3,173.5,57,174.3,57.7z"/>
<path class="st0" d="M264.8,42.5l11-24.7h0.4l11.1,24.7H264.8z M248,63.9h5.7c1.1,0,1.8-0.7,2.1-1.4c1.8-4.1,3.7-8.2,5.5-12.3h29.4
	l5.6,12.3c0.4,0.8,1,1.4,2.1,1.4h5.7c1.3,0,2.1-1.2,1.5-2.3L278.1,1c-0.3-0.5-1.1-1-1.5-1h-0.9c-0.5,0-1.3,0.4-1.5,1l-27.6,60.6
	C246,62.7,246.7,63.9,248,63.9z"/>
<path class="st0" d="M314.1,32.5c0,18,14.5,32.3,32.5,32.3c8,0,15.8-2.8,21.9-8.7c0.6-0.6,0.8-1.8,0.1-2.4l-4.1-4.1
	c-0.5-0.4-1.4-0.5-2.2,0.1c-4.3,3.3-8.9,5.9-15.5,5.9c-12.9,0-22.7-10.7-22.7-23.3c0-12.6,9.7-23.4,22.6-23.4c5.6,0,11.3,2.3,15.6,6
	c0.8,0.8,1.6,0.8,2.2,0l4-4c0.7-0.7,0.7-1.8-0.1-2.5C362.2,3.1,355.7,0,346.6,0C328.6,0,314.1,14.5,314.1,32.5z"/>
<path class="st0" d="M394.5,62.2c0,0.9,0.8,1.7,1.7,1.7h5.9c0.9,0,1.7-0.8,1.7-1.7V9.4h14.7c1,0,1.7-0.8,1.7-1.7v-5
	c0-0.9-0.7-1.7-1.7-1.7h-38.7c-1,0-1.7,0.8-1.7,1.7v5c0,0.9,0.7,1.7,1.7,1.7h14.7V62.2z"/>
<path class="st0" d="M434.4,62.2c0,0.9,0.8,1.7,1.7,1.7h5.9c0.9,0,1.7-0.8,1.7-1.7V2.6c0-0.9-0.8-1.7-1.7-1.7h-5.9
	c-0.9,0-1.7,0.8-1.7,1.7V62.2z"/>
<path class="st0" d="M484.8,63.8c0.3,0.5,0.9,1,1.5,1h0.9c0.7,0,1.3-0.4,1.5-1l27.6-60.6c0.5-1.2-0.2-2.3-1.5-2.3h-6.4
	c-0.8,0-1.3,0.5-1.5,1l-19.8,44.5h-0.5L466.8,1.9c-0.2-0.5-0.8-1-1.5-1h-6.4c-1.4,0-2.1,1.2-1.5,2.3L484.8,63.8z"/>
<path class="st0" d="M530,62.2c0,0.9,0.8,1.7,1.7,1.7h5.9c0.9,0,1.7-0.8,1.7-1.7V2.6c0-0.9-0.8-1.7-1.7-1.7h-5.9
	c-0.9,0-1.7,0.8-1.7,1.7V62.2z"/>
<path class="st0" d="M570,62.2c0,0.9,0.8,1.7,1.7,1.7h5.9c0.9,0,1.7-0.8,1.7-1.7V9.4H594c1,0,1.7-0.8,1.7-1.7v-5
	c0-0.9-0.7-1.7-1.7-1.7h-38.7c-1,0-1.7,0.8-1.7,1.7v5c0,0.9,0.7,1.7,1.7,1.7H570V62.2z"/>
<path class="st0" d="M625.1,62.2c0,0.9,0.7,1.7,1.7,1.7h5.9c0.9,0,1.7-0.8,1.7-1.7V33.5l21.3-30c0.7-1.2,0-2.6-1.4-2.6h-6.8
	c-0.6,0-1.2,0.5-1.4,0.8l-16.3,22.9L613.6,1.7c-0.3-0.4-0.7-0.8-1.4-0.8h-6.7c-1.4,0-2.2,1.4-1.4,2.6l21.1,30.1V62.2z"/>
</svg>
