<?xml version="1.0" encoding="utf-8"?>
<!-- Generator: Adobe Illustrator 28.1.0, SVG Export Plug-In . SVG Version: 6.00 Build 0)  -->
<svg version="1.1" id="レイヤー_1" xmlns="http://www.w3.org/2000/svg" xmlns:xlink="http://www.w3.org/1999/xlink" x="0px"
	 y="0px" viewBox="0 0 648 184.8" style="enable-background:new 0 0 648 184.8;" xml:space="preserve">
<path d="M16.4,62.2c0,0.9,0.8,1.7,1.7,1.7H24c0.9,0,1.7-0.8,1.7-1.7V9.4h14.7c1,0,1.7-0.8,1.7-1.7v-5c0-0.9-0.7-1.7-1.7-1.7H1.7
	C0.7,0.9,0,1.7,0,2.6v5c0,0.9,0.7,1.7,1.7,1.7h14.7V62.2z"/>
<path d="M56.3,62.2c0,0.9,0.8,1.7,1.7,1.7H64c1,0,1.7-0.8,1.7-1.7v-26h32.9v26c0,0.9,0.7,1.7,1.7,1.7h5.9c0.9,0,1.7-0.8,1.7-1.7V2.6
	c0-0.9-0.8-1.7-1.7-1.7h-5.9c-1,0-1.7,0.8-1.7,1.7v25.1H65.7V2.6c0-0.9-0.7-1.7-1.7-1.7h-5.9c-0.9,0-1.7,0.8-1.7,1.7V62.2z"/>
<path d="M139.4,31.5V9.6h16c5.9,0,11,4.9,11,10.7c0,6.2-5.1,11.2-11,11.2H139.4z M130,62.2c0,0.9,0.7,1.7,1.7,1.7h5.9
	c0.9,0,1.7-0.8,1.7-1.7v-23h13.6l12,23.9c0.2,0.4,0.7,0.8,1.4,0.8h7c1.5,0,2.2-1.4,1.5-2.6l-12.3-22.9c7.8-3.2,13.3-10,13.3-18.3
	c0-10.7-8.8-19.3-19.6-19.3h-24.5c-1,0-1.7,0.8-1.7,1.7V62.2z"/>
<path d="M194.3,62.2c0,0.9,0.7,1.7,1.7,1.7h36c1,0,1.7-0.8,1.7-1.7v-5c0-0.9-0.7-1.7-1.7-1.7h-28.4V36.2h24c0.9,0,1.7-0.7,1.7-1.7
	v-5c0-0.9-0.8-1.7-1.7-1.7h-24V9.4H232c1,0,1.7-0.8,1.7-1.7v-5c0-0.9-0.7-1.7-1.7-1.7h-36c-1,0-1.7,0.8-1.7,1.7V62.2z"/>
<path d="M251.8,62.2c0,0.9,0.7,1.7,1.7,1.7h36c1,0,1.7-0.8,1.7-1.7v-5c0-0.9-0.7-1.7-1.7-1.7h-28.4V36.2h24c0.9,0,1.7-0.7,1.7-1.7
	v-5c0-0.9-0.8-1.7-1.7-1.7h-24V9.4h28.4c1,0,1.7-0.8,1.7-1.7v-5c0-0.9-0.7-1.7-1.7-1.7h-36c-1,0-1.7,0.8-1.7,1.7V62.2z"/>
<path d="M344.9,63.5c0.2,0.7,0.9,1.3,1.6,1.3h1.4c0.6,0,1.4-0.5,1.5-1L365,19.1h0.5l15.8,44.7c0.2,0.5,0.9,1,1.5,1h1.4
	c0.7,0,1.4-0.5,1.6-1.3l17-60.5c0.4-1.3-0.4-2.2-1.6-2.2h-6c-0.7,0-1.4,0.6-1.6,1.3L383,43.5h-0.4L367.7,1c-0.2-0.5-0.8-1-1.5-1
	h-1.6c-0.7,0-1.3,0.5-1.5,1l-14.7,42.5H348L337.1,2.2c-0.2-0.6-0.9-1.3-1.6-1.3h-6c-1.3,0-2,0.9-1.6,2.2L344.9,63.5z"/>
<path d="M426.5,42.5l11-24.7h0.4L449,42.5H426.5z M409.8,63.9h5.7c1.1,0,1.8-0.7,2.1-1.3c1.8-4.1,3.7-8.2,5.5-12.3h29.4l5.6,12.3
	c0.4,0.8,1,1.3,2.1,1.3h5.7c1.3,0,2.1-1.2,1.5-2.3L439.8,1c-0.3-0.5-1.1-1-1.5-1h-0.9c-0.5,0-1.3,0.5-1.5,1l-27.6,60.6
	C407.7,62.7,408.4,63.9,409.8,63.9z"/>
<path d="M488.6,62.2c0,0.9,0.7,1.7,1.7,1.7h5.9c0.9,0,1.7-0.8,1.7-1.7V33.5l21.3-30c0.7-1.2,0-2.6-1.4-2.6h-6.8
	c-0.6,0-1.2,0.5-1.4,0.8l-16.3,23l-16.3-23c-0.3-0.4-0.7-0.8-1.4-0.8H469c-1.4,0-2.2,1.4-1.4,2.6l21.1,30.1V62.2z"/>
<path d="M4.2,177.7c1.4,1.3,8.4,7.1,19.4,7.1c11.7,0,20.1-7.7,20.1-17c0-11-8.9-15.9-19.3-20.2c-7.5-3.1-11.4-6.2-11.4-11.3
	c0-3.3,2.6-8.1,10.2-8.1c5.2,0,11.5,4.1,12.1,4.5c1.3,0.8,2.4,0.3,3.2-0.9c0.7-1.1,1.5-2.3,2.2-3.4c0.9-1.3,0.2-2.6-0.5-3.1
	c-0.9-0.6-7.7-5.3-16.7-5.3c-14.3,0-19.7,9.6-19.7,16.7c0,10.4,7.2,15.2,16.4,19.1c8.9,3.7,13.6,7.1,13.6,12.5c0,4.6-4,8.4-10.2,8.4
	c-6.9,0-13.9-5.8-14.4-6.2c-1-0.8-2.2-0.5-3.1,0.7s-1.5,2.5-2.3,3.7C2.8,176.3,3.4,177,4.2,177.7z"/>
<path d="M70.4,162.5l11-24.7h0.4l11.1,24.7H70.4z M53.6,183.9h5.7c1.1,0,1.8-0.7,2.1-1.3c1.8-4.1,3.7-8.2,5.5-12.3h29.4l5.6,12.3
	c0.4,0.8,1,1.3,2.1,1.3h5.7c1.3,0,2.1-1.2,1.5-2.3L83.7,121c-0.3-0.5-1.1-1-1.5-1h-0.9c-0.5,0-1.3,0.5-1.5,1l-27.6,60.6
	C51.6,182.7,52.3,183.9,53.6,183.9z"/>
<path d="M130,182.2c0,0.9,0.8,1.7,1.7,1.7h5.9c0.9,0,1.7-0.8,1.7-1.7v-52.8H154c1,0,1.7-0.8,1.7-1.7v-5c0-0.9-0.7-1.7-1.7-1.7h-38.7
	c-1,0-1.7,0.8-1.7,1.7v5c0,0.9,0.7,1.7,1.7,1.7H130V182.2z"/>
<path d="M169.9,182.2c0,0.9,0.8,1.7,1.7,1.7h5.9c0.9,0,1.7-0.8,1.7-1.7v-59.6c0-0.9-0.8-1.7-1.7-1.7h-5.9c-0.9,0-1.7,0.8-1.7,1.7
	V182.2z"/>
<path d="M197.7,177.7c1.4,1.3,8.4,7.1,19.4,7.1c11.7,0,20.1-7.7,20.1-17c0-11-8.9-15.9-19.4-20.2c-7.5-3.1-11.4-6.2-11.4-11.3
	c0-3.3,2.6-8.1,10.2-8.1c5.2,0,11.5,4.1,12.1,4.5c1.3,0.8,2.4,0.3,3.2-0.9c0.7-1.1,1.5-2.3,2.2-3.4c0.9-1.3,0.2-2.6-0.5-3.1
	c-0.9-0.6-7.6-5.3-16.6-5.3c-14.3,0-19.7,9.6-19.7,16.7c0,10.4,7.2,15.2,16.4,19.1c8.9,3.7,13.6,7.1,13.6,12.5c0,4.6-4,8.4-10.2,8.4
	c-6.9,0-13.9-5.8-14.4-6.2c-1-0.8-2.2-0.5-3.1,0.7s-1.5,2.5-2.3,3.7C196.3,176.3,196.9,177,197.7,177.7z"/>
<path d="M254.1,182.2c0,0.9,0.7,1.7,1.7,1.7h5.8c0.9,0,1.7-0.8,1.7-1.7v-23.7h24c0.9,0,1.7-0.8,1.7-1.7v-5c0-0.9-0.8-1.7-1.7-1.7
	h-24v-20.8h28.4c1,0,1.7-0.8,1.7-1.7v-5c0-0.9-0.7-1.7-1.7-1.7h-36c-1,0-1.7,0.8-1.7,1.7V182.2z"/>
<path d="M317.2,162.5l11-24.7h0.5l11.1,24.7H317.2z M300.5,183.9h5.7c1.1,0,1.8-0.7,2.1-1.3c1.8-4.1,3.7-8.2,5.5-12.3h29.4l5.6,12.3
	c0.4,0.8,1,1.3,2.1,1.3h5.7c1.3,0,2.1-1.2,1.5-2.3L330.6,121c-0.3-0.5-1.1-1-1.5-1h-0.9c-0.4,0-1.3,0.5-1.5,1L299,181.6
	C298.4,182.7,299.2,183.9,300.5,183.9z"/>
<path d="M366.6,152.5c0,18,14.5,32.3,32.5,32.3c8,0,15.8-2.8,21.9-8.7c0.6-0.6,0.8-1.8,0.1-2.4l-4.1-4c-0.5-0.5-1.4-0.5-2.2,0.1
	c-4.3,3.3-8.9,5.9-15.5,5.9c-12.9,0-22.7-10.7-22.7-23.3c0-12.6,9.7-23.4,22.6-23.4c5.6,0,11.3,2.3,15.6,6c0.8,0.8,1.6,0.8,2.2,0
	l4-4c0.7-0.7,0.7-1.8-0.1-2.5c-6.1-5.3-12.7-8.4-21.8-8.4C381.1,120,366.6,134.5,366.6,152.5z"/>
<path d="M446.9,182.2c0,0.9,0.8,1.7,1.7,1.7h5.9c0.9,0,1.7-0.8,1.7-1.7v-52.8H471c1,0,1.7-0.8,1.7-1.7v-5c0-0.9-0.7-1.7-1.7-1.7
	h-38.7c-1,0-1.7,0.8-1.7,1.7v5c0,0.9,0.7,1.7,1.7,1.7h14.7V182.2z"/>
<path d="M486.9,182.2c0,0.9,0.8,1.7,1.7,1.7h5.9c0.9,0,1.7-0.8,1.7-1.7v-59.6c0-0.9-0.8-1.7-1.7-1.7h-5.9c-0.9,0-1.7,0.8-1.7,1.7
	V182.2z"/>
<path d="M522.6,152.5c0-12.8,10.5-23.5,23.3-23.5c12.9,0,23.4,10.7,23.4,23.5c0,12.9-10.5,23.3-23.4,23.3
	C533.2,175.8,522.6,165.4,522.6,152.5z M513.6,152.5c0,18,14.3,32.3,32.3,32.3s32.4-14.3,32.4-32.3S563.9,120,545.9,120
	S513.6,134.5,513.6,152.5z"/>
<path d="M595.7,182.2c0,0.9,0.8,1.7,1.7,1.7h5.7c1,0,1.7-0.8,1.7-1.7v-43.8h0.1l39.1,46.4h2.3c0.9,0,1.7-0.7,1.7-1.6v-60.6
	c0-0.9-0.8-1.7-1.7-1.7h-5.8c-1,0-1.7,0.8-1.7,1.7v42.6h-0.1L599.7,120h-2.2c-0.9,0-1.7,0.7-1.7,1.6V182.2z"/>
</svg>
