<?xml version="1.0" encoding="utf-8"?>
<!-- Generator: Adobe Illustrator 27.9.1, SVG Export Plug-In . SVG Version: 6.00 Build 0)  -->
<svg version="1.1" id="レイヤー_1" xmlns="http://www.w3.org/2000/svg" xmlns:xlink="http://www.w3.org/1999/xlink" x="0px"
	 y="0px" viewBox="0 0 522.3 184.8" style="enable-background:new 0 0 522.3 184.8;" xml:space="preserve">
<path d="M14.6,14.1H1.7c-1,0-1.7-0.8-1.7-1.7V2.6c0-0.9,0.7-1.7,1.7-1.7h40c1,0,1.7,0.8,1.7,1.7v9.8c0,0.9-0.7,1.7-1.7,1.7H28.8
	v48.1c0,0.9-0.8,1.7-1.7,1.7H16.3c-0.9,0-1.7-0.8-1.7-1.7V14.1z"/>
<path d="M56.9,2.6c0-0.9,0.8-1.7,1.7-1.7h10.7c1,0,1.7,0.8,1.7,1.7v22.7h25.7V2.6c0-0.9,0.7-1.7,1.7-1.7h10.7c0.9,0,1.7,0.8,1.7,1.7
	v59.6c0,0.9-0.8,1.7-1.7,1.7H98.5c-1,0-1.7-0.8-1.7-1.7V38.5H71v23.7c0,0.9-0.7,1.7-1.7,1.7H58.6c-0.9,0-1.7-0.8-1.7-1.7V2.6z"/>
<path d="M130.9,2.6c0-0.9,0.7-1.7,1.7-1.7h26.9c10.8,0,19.6,8.7,19.6,19.4c0,8.3-5.5,14.9-13.3,18.1l12.3,22.9
	c0.6,1.2,0,2.6-1.5,2.6h-12c-0.7,0-1.3-0.5-1.4-0.8l-12-23.8H145v22.9c0,0.9-0.8,1.7-1.7,1.7h-10.7c-1,0-1.7-0.8-1.7-1.7V2.6z
	 M158.3,27.8c3.7,0,6.8-3.4,6.8-7.2c0-3.8-3.1-6.8-6.8-6.8H145v14H158.3z"/>
<path d="M195.7,2.6c0-0.9,0.7-1.7,1.7-1.7h37.3c1,0,1.7,0.8,1.7,1.7v9.8c0,0.9-0.7,1.7-1.7,1.7h-24.9v11.2h20.5
	c0.9,0,1.7,0.8,1.7,1.7v9.8c0,1-0.8,1.7-1.7,1.7h-20.5v12.1h24.9c1,0,1.7,0.8,1.7,1.7v9.8c0,0.9-0.7,1.7-1.7,1.7h-37.3
	c-1,0-1.7-0.8-1.7-1.7V2.6z"/>
<path d="M252.9,2.6c0-0.9,0.7-1.7,1.7-1.7h37.3c1,0,1.7,0.8,1.7,1.7v9.8c0,0.9-0.7,1.7-1.7,1.7h-24.9v11.2h20.5
	c0.9,0,1.7,0.8,1.7,1.7v9.8c0,1-0.8,1.7-1.7,1.7h-20.5v12.1h24.9c1,0,1.7,0.8,1.7,1.7v9.8c0,0.9-0.7,1.7-1.7,1.7h-37.3
	c-1,0-1.7-0.8-1.7-1.7V2.6z"/>
<path d="M328.9,3.1c-0.4-1.3,0.4-2.2,1.6-2.2h10.5c0.7,0,1.4,0.6,1.6,1.3l7.7,30.5h0.4L364.8,1c0.3-0.5,0.8-1,1.5-1h1.6
	c0.8,0,1.3,0.5,1.5,1l14,31.7h0.4l7.7-30.5c0.2-0.6,0.9-1.3,1.6-1.3h10.5c1.3,0,2,0.9,1.6,2.2l-17,60.5c-0.2,0.7-0.9,1.3-1.6,1.3
	h-1.4c-0.6,0-1.3-0.5-1.5-1L367.2,27h-0.3l-16.4,36.8c-0.3,0.5-0.9,1-1.5,1h-1.4c-0.7,0-1.4-0.5-1.6-1.3L328.9,3.1z"/>
<path d="M408.7,61.6L436.9,1c0.3-0.5,0.9-1,1.5-1h0.9c0.6,0,1.3,0.5,1.5,1L469,61.6c0.5,1.2-0.2,2.3-1.5,2.3h-10
	c-1.6,0-2.3-0.5-3.1-2.2l-3.2-7.1h-24.5l-3.2,7.2c-0.5,1.1-1.4,2.2-3.2,2.2h-9.9C408.9,63.9,408.1,62.7,408.7,61.6z M445.7,42.3
	l-6.8-14.8h-0.1L432,42.3H445.7z"/>
<path d="M487.7,33.6L467.8,3.5c-0.7-1.2,0-2.6,1.4-2.6H481c0.7,0,1.2,0.4,1.4,0.8l12.5,18.4l12.5-18.4c0.3-0.4,0.6-0.8,1.4-0.8h11.7
	c1.4,0,2.2,1.4,1.4,2.6l-20.2,30v28.7c0,0.9-0.8,1.7-1.7,1.7h-10.7c-1,0-1.7-0.8-1.7-1.7V33.6z"/>
<path d="M6.5,122.6c0-0.9,0.8-1.7,1.7-1.7h10.7c1,0,1.7,0.8,1.7,1.7v22.7h25.7v-22.7c0-0.9,0.7-1.7,1.7-1.7h10.7
	c0.9,0,1.7,0.8,1.7,1.7v59.6c0,0.9-0.8,1.7-1.7,1.7H48.1c-1,0-1.7-0.8-1.7-1.7v-23.7H20.6v23.7c0,0.9-0.7,1.7-1.7,1.7H8.2
	c-0.9,0-1.7-0.8-1.7-1.7V122.6z"/>
<path d="M72.4,181.6l28.2-60.6c0.3-0.5,0.9-1,1.5-1h0.9c0.6,0,1.3,0.5,1.5,1l28.2,60.6c0.5,1.2-0.2,2.3-1.5,2.3h-10
	c-1.6,0-2.3-0.5-3.1-2.2l-3.2-7.1H90.3l-3.2,7.2c-0.5,1.1-1.4,2.2-3.2,2.2h-9.9C72.5,183.9,71.8,182.7,72.4,181.6z M109.3,162.3
	l-6.8-14.8h-0.1l-6.7,14.8H109.3z"/>
<path d="M144.5,122.6c0-0.9,0.7-1.7,1.7-1.7h21.7c11.1,0,20.2,9,20.2,19.9c0,11.2-9.1,20.2-20.1,20.2h-9.4v21.1
	c0,0.9-0.8,1.7-1.7,1.7h-10.6c-1,0-1.7-0.8-1.7-1.7V122.6z M167.1,147.9c3.9,0,7.1-3.1,7.1-7.1c0-3.8-3.2-6.7-7.1-6.7h-8.5v13.8
	H167.1z"/>
<path d="M201.8,122.6c0-0.9,0.7-1.7,1.7-1.7h21.7c11.1,0,20.2,9,20.2,19.9c0,11.2-9.1,20.2-20.1,20.2h-9.4v21.1
	c0,0.9-0.8,1.7-1.7,1.7h-10.6c-1,0-1.7-0.8-1.7-1.7V122.6z M224.4,147.9c3.9,0,7.1-3.1,7.1-7.1c0-3.8-3.2-6.7-7.1-6.7h-8.5v13.8
	H224.4z"/>
<path d="M259,122.6c0-0.9,0.8-1.7,1.7-1.7h10.8c0.9,0,1.7,0.8,1.7,1.7v59.6c0,0.9-0.8,1.7-1.7,1.7h-10.8c-0.9,0-1.7-0.8-1.7-1.7
	V122.6z"/>
<path d="M293.1,121.6c0-0.9,0.8-1.6,1.7-1.6h2.2l35.9,34.6h0.1v-31.9c0-0.9,0.7-1.7,1.7-1.7h10.8c0.9,0,1.7,0.8,1.7,1.7v60.6
	c0,0.9-0.8,1.6-1.7,1.6h-1.4c-0.3,0-1-0.3-1.2-0.5l-35.5-35.7h-0.1v33.6c0,0.9-0.7,1.7-1.7,1.7h-10.7c-0.9,0-1.7-0.8-1.7-1.7
	L293.1,121.6z"/>
<path d="M367.3,122.6c0-0.9,0.7-1.7,1.7-1.7h37.3c1,0,1.7,0.8,1.7,1.7v9.8c0,0.9-0.7,1.7-1.7,1.7h-24.9v11.2h20.5
	c0.9,0,1.7,0.8,1.7,1.7v9.8c0,1-0.8,1.7-1.7,1.7h-20.5v12.1h24.9c1,0,1.7,0.8,1.7,1.7v9.8c0,0.9-0.7,1.7-1.7,1.7H369
	c-1,0-1.7-0.8-1.7-1.7V122.6z"/>
<path d="M420.9,175.3l4.2-7.5c0.7-1.2,2.4-1,3.1-0.5c0.4,0.2,6.8,5,12.8,5c3.6,0,6.2-2.2,6.2-5.4c0-3.8-3.2-6.7-9.3-9.1
	c-7.7-3.1-17.5-9.1-17.5-19.9c0-8.9,6.9-17.9,20.8-17.9c9.4,0,16.6,4.8,19.3,6.8c1.1,0.6,0.9,2.2,0.5,2.9l-4.6,6.9
	c-0.6,1-2.2,1.8-3.1,1.2c-0.8-0.5-7.4-5.4-12.9-5.4c-3.2,0-5.7,2.2-5.7,4.6c0,3.3,2.7,5.9,9.8,8.7c7,2.8,18.2,8.3,18.2,20.5
	c0,9.3-8,18.6-21.2,18.6c-11.7,0-18.2-4.9-20.2-6.9C420.5,177,420.2,176.6,420.9,175.3z"/>
<path d="M474.7,175.3l4.2-7.5c0.7-1.2,2.4-1,3.1-0.5c0.4,0.2,6.8,5,12.8,5c3.6,0,6.2-2.2,6.2-5.4c0-3.8-3.1-6.7-9.3-9.1
	c-7.7-3.1-17.5-9.1-17.5-19.9c0-8.9,6.9-17.9,20.8-17.9c9.4,0,16.6,4.8,19.3,6.8c1.1,0.6,0.9,2.2,0.5,2.9l-4.6,6.9
	c-0.6,1-2.2,1.8-3.1,1.2c-0.8-0.5-7.4-5.4-12.9-5.4c-3.2,0-5.7,2.2-5.7,4.6c0,3.3,2.7,5.9,9.8,8.7c7,2.8,18.2,8.3,18.2,20.5
	c0,9.3-8,18.6-21.2,18.6c-11.7,0-18.2-4.9-20.2-6.9C474.3,177,474,176.6,474.7,175.3z"/>
</svg>
