<?xml version="1.0" encoding="utf-8"?>
<!-- Generator: Adobe Illustrator 28.1.0, SVG Export Plug-In . SVG Version: 6.00 Build 0)  -->
<svg version="1.1" id="レイヤー_1" xmlns="http://www.w3.org/2000/svg" xmlns:xlink="http://www.w3.org/1999/xlink" x="0px"
	 y="0px" viewBox="0 0 637 64.8" style="enable-background:new 0 0 637 64.8;" xml:space="preserve">
<style type="text/css">
	.st0{fill:#FFFFFF;}
</style>
<path class="st0" d="M0,62.2c0,0.9,0.8,1.7,1.7,1.7h5.7c1,0,1.7-0.8,1.7-1.7V18.4h0.1l39.1,46.4h2.3c0.9,0,1.7-0.7,1.7-1.6V2.6
	c0-0.9-0.8-1.7-1.7-1.7h-5.8c-1,0-1.7,0.8-1.7,1.7v42.6H43L4,0H1.7C0.8,0,0,0.7,0,1.6V62.2z"/>
<path class="st0" d="M74.2,62.2c0,0.9,0.7,1.7,1.7,1.7h36c1,0,1.7-0.8,1.7-1.7v-5c0-0.9-0.7-1.7-1.7-1.7H83.5V36.2h24
	c0.9,0,1.7-0.7,1.7-1.7v-5c0-0.9-0.8-1.7-1.7-1.7h-24V9.4H112c1,0,1.7-0.8,1.7-1.7v-5c0-0.9-0.7-1.7-1.7-1.7H76
	c-1,0-1.7,0.8-1.7,1.7V62.2z"/>
<path class="st0" d="M143,63.5c0.2,0.7,0.9,1.3,1.6,1.3h1.4c0.6,0,1.3-0.4,1.5-1l15.6-44.7h0.4l15.8,44.7c0.2,0.5,0.9,1,1.5,1h1.4
	c0.7,0,1.4-0.5,1.6-1.3l17-60.5c0.4-1.3-0.4-2.2-1.6-2.2h-6c-0.7,0-1.4,0.6-1.6,1.3l-10.7,41.3h-0.4L165.9,1c-0.2-0.5-0.8-1-1.5-1
	h-1.6c-0.7,0-1.4,0.4-1.5,1l-14.7,42.5h-0.4L135.3,2.2c-0.2-0.6-0.9-1.3-1.6-1.3h-6c-1.3,0-2,0.9-1.6,2.2L143,63.5z"/>
<path class="st0" d="M237,32.5c0,18,14.5,32.3,32.5,32.3c8,0,15.8-2.8,21.9-8.7c0.6-0.6,0.8-1.8,0.1-2.4l-4.1-4.1
	c-0.5-0.4-1.3-0.5-2.2,0.1c-4.3,3.3-8.9,5.9-15.5,5.9c-12.9,0-22.7-10.7-22.7-23.3c0-12.6,9.7-23.4,22.6-23.4c5.6,0,11.3,2.3,15.6,6
	c0.8,0.8,1.6,0.8,2.2,0l4-4c0.7-0.7,0.7-1.8-0.1-2.5C285.1,3.1,278.5,0,269.5,0C251.5,0,237,14.5,237,32.5z"/>
<path class="st0" d="M318.5,42.5l11-24.7h0.4L341,42.5H318.5z M301.8,63.9h5.7c1.1,0,1.8-0.7,2.1-1.4c1.8-4.1,3.7-8.2,5.5-12.3h29.4
	l5.6,12.3c0.4,0.8,1,1.4,2.1,1.4h5.7c1.3,0,2.1-1.2,1.5-2.3L331.8,1c-0.3-0.5-1.1-1-1.5-1h-0.9c-0.5,0-1.3,0.4-1.5,1l-27.6,60.6
	C299.7,62.7,300.4,63.9,301.8,63.9z"/>
<path class="st0" d="M382.2,31.5V9.6h16c5.9,0,11,4.9,11,10.7c0,6.2-5.1,11.2-11,11.2H382.2z M372.8,62.2c0,0.9,0.7,1.7,1.7,1.7h5.9
	c0.9,0,1.7-0.8,1.7-1.7v-23h13.6l12,23.9c0.2,0.4,0.7,0.8,1.4,0.8h7c1.5,0,2.2-1.4,1.5-2.6l-12.3-22.9c7.8-3.1,13.3-10,13.3-18.3
	c0-10.7-8.8-19.3-19.6-19.3h-24.5c-1,0-1.7,0.8-1.7,1.7V62.2z"/>
<path class="st0" d="M461.4,62.2c0,0.9,0.7,1.7,1.7,1.7h32c1,0,1.7-0.8,1.7-1.7v-5c0-0.9-0.7-1.7-1.7-1.7h-24.4V2.6
	c0-0.9-0.8-1.7-1.7-1.7h-5.9c-1,0-1.7,0.8-1.7,1.7V62.2z"/>
<path class="st0" d="M510.8,62.2c0,0.9,0.8,1.7,1.7,1.7h5.9c0.9,0,1.7-0.8,1.7-1.7V2.6c0-0.9-0.8-1.7-1.7-1.7h-5.9
	c-0.9,0-1.7,0.8-1.7,1.7V62.2z"/>
<path class="st0" d="M542.2,62.2c0,0.9,0.7,1.7,1.7,1.7h5.9c0.9,0,1.7-0.8,1.7-1.7V38.5h24c0.9,0,1.7-0.8,1.7-1.7v-5
	c0-0.9-0.8-1.7-1.7-1.7h-24V9.4h28.4c1,0,1.7-0.8,1.7-1.7v-5c0-0.9-0.7-1.7-1.7-1.7h-36c-1,0-1.7,0.8-1.7,1.7V62.2z"/>
<path class="st0" d="M597.6,62.2c0,0.9,0.7,1.7,1.7,1.7h36c1,0,1.7-0.8,1.7-1.7v-5c0-0.9-0.7-1.7-1.7-1.7h-28.4V36.2h24
	c0.9,0,1.7-0.7,1.7-1.7v-5c0-0.9-0.8-1.7-1.7-1.7h-24V9.4h28.4c1,0,1.7-0.8,1.7-1.7v-5c0-0.9-0.7-1.7-1.7-1.7h-36
	c-1,0-1.7,0.8-1.7,1.7V62.2z"/>
</svg>
