<?xml version="1.0" encoding="utf-8"?>
<!-- Generator: Adobe Illustrator 28.1.0, SVG Export Plug-In . SVG Version: 6.00 Build 0)  -->
<svg version="1.1" id="レイヤー_1" xmlns="http://www.w3.org/2000/svg" xmlns:xlink="http://www.w3.org/1999/xlink" x="0px"
	 y="0px" viewBox="0 0 177.8 43.2" style="enable-background:new 0 0 177.8 43.2;" xml:space="preserve">
<path d="M0,41.5c0,0.6,0.5,1.1,1.1,1.1h3.8c0.7,0,1.1-0.5,1.1-1.1V12.2h0.1l26,31h1.6c0.6,0,1.1-0.5,1.1-1.1V1.7
	c0-0.6-0.5-1.1-1.1-1.1h-3.8c-0.7,0-1.1,0.5-1.1,1.1v28.4h-0.1L2.6,0H1.1C0.5,0,0,0.5,0,1.1V41.5z"/>
<path d="M52.5,41.5c0,0.6,0.5,1.1,1.1,1.1h24c0.7,0,1.1-0.5,1.1-1.1v-3.3c0-0.6-0.5-1.1-1.1-1.1h-19V24.1h16c0.6,0,1.1-0.5,1.1-1.1
	v-3.4c0-0.6-0.5-1.1-1.1-1.1h-16V6.2h19c0.7,0,1.1-0.5,1.1-1.1V1.7c0-0.6-0.5-1.1-1.1-1.1h-24c-0.7,0-1.1,0.5-1.1,1.1V41.5z"/>
<path d="M101.3,42.4c0.1,0.5,0.6,0.8,1.1,0.8h1c0.4,0,0.9-0.3,1-0.7l10.4-29.8h0.3l10.6,29.8c0.1,0.4,0.6,0.7,1,0.7h1
	c0.5,0,1-0.4,1.1-0.8L140,2c0.2-0.8-0.2-1.4-1.1-1.4h-4c-0.5,0-1,0.4-1.1,0.8L126.7,29h-0.2l-9.9-28.3c-0.1-0.4-0.5-0.7-1-0.7h-1.1
	c-0.5,0-0.9,0.3-1,0.7L103.7,29h-0.2L96.2,1.4c-0.1-0.4-0.6-0.8-1.1-0.8h-4c-0.8,0-1.3,0.6-1.1,1.4L101.3,42.4z"/>
<path d="M151.5,38.5c1,0.9,5.6,4.7,12.9,4.7c7.8,0,13.4-5.1,13.4-11.3c0-7.3-5.9-10.6-12.9-13.4c-5-2-7.6-4.1-7.6-7.6
	c0-2.2,1.7-5.4,6.8-5.4c3.5,0,7.7,2.8,8.1,3c0.8,0.5,1.6,0.2,2.1-0.6c0.5-0.7,1-1.6,1.5-2.3c0.6-0.9,0.1-1.7-0.4-2
	c-0.6-0.4-5.1-3.5-11.1-3.5c-9.5,0-13.1,6.4-13.1,11.1c0,7,4.8,10.1,10.9,12.7c5.9,2.5,9.1,4.7,9.1,8.3c0,3.1-2.6,5.6-6.8,5.6
	c-4.6,0-9.2-3.8-9.6-4.1c-0.7-0.5-1.5-0.3-2,0.5s-1,1.7-1.6,2.5C150.5,37.6,151,38,151.5,38.5z"/>
</svg>
