<?xml version="1.0" encoding="utf-8"?>
<!-- Generator: Adobe Illustrator 28.1.0, SVG Export Plug-In . SVG Version: 6.00 Build 0)  -->
<svg version="1.1" id="レイヤー_1" xmlns="http://www.w3.org/2000/svg" xmlns:xlink="http://www.w3.org/1999/xlink" x="0px"
	 y="0px" viewBox="0 0 657.5 64.8" style="enable-background:new 0 0 657.5 64.8;" xml:space="preserve">
<style type="text/css">
	.st0{fill:#FFFFFF;}
</style>
<path class="st0" d="M9.5,31.5V9.6h16c5.8,0,11,4.9,11,10.7c0,6.2-5.1,11.2-11,11.2H9.5z M0,62.2c0,0.9,0.7,1.7,1.7,1.7h5.8
	c0.9,0,1.7-0.8,1.7-1.7V39.2h13.6l12,23.8c0.2,0.4,0.7,0.8,1.4,0.8h7c1.5,0,2.2-1.4,1.5-2.6L32.5,38.4c7.8-3.2,13.3-10,13.3-18.3
	C45.8,9.4,37,0.9,26.2,0.9H1.7C0.7,0.9,0,1.7,0,2.6V62.2z"/>
<path class="st0" d="M64.3,62.2c0,0.9,0.8,1.7,1.7,1.7H72c0.9,0,1.7-0.8,1.7-1.7V2.6c0-0.9-0.8-1.7-1.7-1.7h-5.9
	c-0.9,0-1.7,0.8-1.7,1.7V62.2z"/>
<path class="st0" d="M91.1,32.5c0,18,14.5,32.3,32.5,32.3c8,0,15.8-2.8,21.9-8.7c0.6-0.6,0.8-1.8,0.1-2.4l-4.1-4.1
	c-0.5-0.4-1.3-0.5-2.2,0.1c-4.3,3.3-8.9,5.9-15.5,5.9c-12.9,0-22.7-10.7-22.7-23.3c0-12.6,9.7-23.4,22.6-23.4c5.6,0,11.3,2.3,15.6,6
	c0.8,0.8,1.6,0.8,2.2,0l4-4.1c0.7-0.7,0.7-1.8-0.1-2.5C139.2,3.1,132.7,0,123.6,0C105.6,0,91.1,14.5,91.1,32.5z"/>
<path class="st0" d="M162.8,62.2c0,0.9,0.8,1.7,1.7,1.7h5.9c1,0,1.7-0.8,1.7-1.7v-26h32.9v26c0,0.9,0.7,1.7,1.7,1.7h5.9
	c0.9,0,1.7-0.8,1.7-1.7V2.6c0-0.9-0.8-1.7-1.7-1.7h-5.9c-1,0-1.7,0.8-1.7,1.7v25.1h-32.9V2.6c0-0.9-0.7-1.7-1.7-1.7h-5.9
	c-0.9,0-1.7,0.8-1.7,1.7V62.2z"/>
<path class="st0" d="M256.1,32.5c0,18,14.5,32.3,32.4,32.3c13,0,22.3-5.9,22.3-5.9c0.4-0.3,0.7-1,0.7-1.4c0-7.2-0.1-14.6-0.1-21.8
	c0-0.9-0.7-1.7-1.6-1.7h-16.4c-1,0-1.7,0.7-1.7,1.7v5.2c0,0.9,0.7,1.6,1.7,1.6h8.8v10.1c-0.9,0.4-6,3.1-13.5,3.1
	c-12.8,0-22.6-10.8-22.6-23.3c0-12.6,9.8-23.4,22.6-23.4c5.5,0,11.1,2.4,15.3,6.1c0.9,0.8,1.6,0.9,2.3,0.1c1.4-1.4,2.7-2.8,4.1-4.2
	c0.7-0.7,0.6-1.8-0.1-2.5C304.3,3.1,297.2,0,288.5,0C270.6,0,256.1,14.5,256.1,32.5z"/>
<path class="st0" d="M339.7,31.5V9.6h16c5.9,0,11,4.9,11,10.7c0,6.2-5.1,11.2-11,11.2H339.7z M330.2,62.2c0,0.9,0.7,1.7,1.7,1.7h5.9
	c0.9,0,1.7-0.8,1.7-1.7V39.2h13.6l12,23.8c0.2,0.4,0.7,0.8,1.4,0.8h7c1.5,0,2.2-1.4,1.5-2.6l-12.3-22.9c7.8-3.2,13.3-10,13.3-18.3
	c0-10.7-8.8-19.3-19.6-19.3h-24.5c-1,0-1.7,0.8-1.7,1.7V62.2z"/>
<path class="st0" d="M399,32.5C399,19.7,409.5,9,422.3,9c12.9,0,23.4,10.7,23.4,23.5c0,12.9-10.5,23.3-23.4,23.3
	C409.5,55.8,399,45.4,399,32.5z M390,32.5c0,18,14.3,32.3,32.3,32.3s32.4-14.3,32.4-32.3S440.3,0,422.3,0S390,14.5,390,32.5z"/>
<path class="st0" d="M482.9,63.5c0.2,0.7,0.9,1.3,1.6,1.3h1.4c0.6,0,1.3-0.4,1.5-1l15.6-44.7h0.4l15.8,44.7c0.2,0.5,0.9,1,1.5,1h1.4
	c0.7,0,1.4-0.5,1.6-1.3l17-60.5c0.4-1.3-0.4-2.2-1.6-2.2h-6c-0.7,0-1.4,0.6-1.6,1.3L521,43.5h-0.4L505.8,1c-0.2-0.5-0.8-1-1.5-1
	h-1.6c-0.7,0-1.3,0.4-1.5,1l-14.7,42.5h-0.4L475.2,2.2c-0.2-0.6-0.9-1.3-1.6-1.3h-6c-1.3,0-2,0.9-1.6,2.2L482.9,63.5z"/>
<path class="st0" d="M565.8,62.2c0,0.9,0.8,1.7,1.7,1.7h5.9c0.9,0,1.7-0.8,1.7-1.7V9.4h14.7c1,0,1.7-0.8,1.7-1.7v-5
	c0-0.9-0.7-1.7-1.7-1.7h-38.7c-1,0-1.7,0.8-1.7,1.7v5c0,0.9,0.7,1.7,1.7,1.7h14.7V62.2z"/>
<path class="st0" d="M605.8,62.2c0,0.9,0.8,1.7,1.7,1.7h5.9c1,0,1.7-0.8,1.7-1.7v-26h32.9v26c0,0.9,0.7,1.7,1.7,1.7h5.9
	c0.9,0,1.7-0.8,1.7-1.7V2.6c0-0.9-0.8-1.7-1.7-1.7h-5.9c-1,0-1.7,0.8-1.7,1.7v25.1h-32.9V2.6c0-0.9-0.7-1.7-1.7-1.7h-5.9
	c-0.9,0-1.7,0.8-1.7,1.7V62.2z"/>
</svg>
