<?xml version="1.0" encoding="utf-8"?>
<!-- Generator: Adobe Illustrator 28.1.0, SVG Export Plug-In . SVG Version: 6.00 Build 0)  -->
<svg version="1.1" id="レイヤー_1" xmlns="http://www.w3.org/2000/svg" xmlns:xlink="http://www.w3.org/1999/xlink" x="0px"
	 y="0px" viewBox="0 0 202.9 43.2" style="enable-background:new 0 0 202.9 43.2;" xml:space="preserve">
<path d="M0.7,38.5c1,0.9,5.6,4.7,12.9,4.7c7.8,0,13.4-5.1,13.4-11.3c0-7.3-5.9-10.6-12.9-13.4c-5-2-7.6-4.1-7.6-7.6
	c0-2.2,1.7-5.4,6.8-5.4c3.5,0,7.7,2.8,8.1,3c0.8,0.5,1.6,0.2,2.1-0.6c0.5-0.7,1-1.6,1.5-2.3c0.6-0.9,0.1-1.7-0.4-2
	C23.9,3.1,19.4,0,13.4,0C3.9,0,0.3,6.4,0.3,11.1c0,7,4.8,10.1,10.9,12.7c5.9,2.5,9.1,4.7,9.1,8.3c0,3.1-2.6,5.6-6.8,5.6
	c-4.6,0-9.2-3.8-9.6-4.1c-0.7-0.5-1.5-0.3-2,0.5s-1,1.7-1.6,2.5C-0.3,37.6,0.1,38,0.7,38.5z"/>
<path d="M47,41.5c0,0.6,0.5,1.1,1.1,1.1h4c0.6,0,1.1-0.5,1.1-1.1V6.2H63c0.7,0,1.1-0.5,1.1-1.1V1.7c0-0.6-0.5-1.1-1.1-1.1H37.2
	c-0.7,0-1.1,0.5-1.1,1.1v3.4c0,0.6,0.5,1.1,1.1,1.1H47V41.5z"/>
<path d="M79,21.7C79,13.1,86,6,94.5,6c8.6,0,15.6,7.1,15.6,15.7c0,8.6-7,15.5-15.6,15.5C86,37.2,79,30.2,79,21.7z M73,21.7
	c0,12,9.5,21.5,21.5,21.5s21.6-9.5,21.6-21.5S106.5,0,94.5,0S73,9.7,73,21.7z"/>
<path d="M137,21V6.4h10.7c3.9,0,7.3,3.2,7.3,7.1c0,4.1-3.4,7.4-7.3,7.4H137z M130.7,41.5c0,0.6,0.5,1.1,1.1,1.1h3.9
	c0.6,0,1.1-0.5,1.1-1.1V26.2h9.1l8,15.9c0.1,0.2,0.5,0.5,1,0.5h4.7c1,0,1.4-1,1-1.7l-8.2-15.2c5.2-2.1,8.9-6.7,8.9-12.2
	c0-7.1-5.9-12.8-13.1-12.8h-16.3c-0.7,0-1.1,0.5-1.1,1.1V41.5z"/>
<path d="M176.6,41.5c0,0.6,0.5,1.1,1.1,1.1h24c0.7,0,1.1-0.5,1.1-1.1v-3.3c0-0.6-0.5-1.1-1.1-1.1h-19V24.1h16c0.6,0,1.1-0.5,1.1-1.1
	v-3.4c0-0.6-0.5-1.1-1.1-1.1h-16V6.2h19c0.7,0,1.1-0.5,1.1-1.1V1.7c0-0.6-0.5-1.1-1.1-1.1h-24c-0.7,0-1.1,0.5-1.1,1.1V41.5z"/>
</svg>
