<?xml version="1.0" encoding="utf-8"?>
<!-- Generator: Adobe Illustrator 28.1.0, SVG Export Plug-In . SVG Version: 6.00 Build 0)  -->
<svg version="1.1" id="レイヤー_1" xmlns="http://www.w3.org/2000/svg" xmlns:xlink="http://www.w3.org/1999/xlink" x="0px"
	 y="0px" viewBox="0 0 195.2 43.2" style="enable-background:new 0 0 195.2 43.2;" xml:space="preserve">
<path d="M11.4,42.4c0.1,0.5,0.6,0.8,1.1,0.8h1c0.4,0,0.9-0.3,1-0.7l10.4-29.8h0.3l10.6,29.8c0.1,0.4,0.6,0.7,1,0.7h1
	c0.5,0,1-0.4,1.1-0.8L50.1,2c0.2-0.8-0.2-1.4-1.1-1.4h-4c-0.5,0-1,0.4-1.1,0.8L36.8,29h-0.2L26.6,0.7c-0.1-0.4-0.5-0.7-1-0.7h-1.1
	c-0.5,0-0.9,0.3-1,0.7L13.7,29h-0.2L6.2,1.4C6.1,1,5.6,0.6,5.2,0.6h-4C0.3,0.6-0.2,1.2,0.1,2L11.4,42.4z"/>
<path d="M66.6,21.7c0-8.5,7-15.7,15.5-15.7c8.6,0,15.6,7.1,15.6,15.7c0,8.6-7,15.5-15.6,15.5C73.6,37.2,66.6,30.2,66.6,21.7z
	 M60.6,21.7c0,12,9.5,21.5,21.5,21.5s21.6-9.5,21.6-21.5S94.1,0,82.1,0S60.6,9.7,60.6,21.7z"/>
<path d="M124.6,21V6.4h10.7c3.9,0,7.3,3.2,7.3,7.1c0,4.1-3.4,7.4-7.3,7.4H124.6z M118.3,41.5c0,0.6,0.5,1.1,1.1,1.1h3.9
	c0.6,0,1.1-0.5,1.1-1.1V26.2h9.1l8,15.9c0.1,0.2,0.5,0.5,1,0.5h4.7c1,0,1.4-1,1-1.7L140,25.6c5.2-2.1,8.9-6.7,8.9-12.2
	c0-7.1-5.9-12.8-13.1-12.8h-16.3c-0.7,0-1.1,0.5-1.1,1.1V41.5z"/>
<path d="M164.2,41.2c0,0.8,0.6,1.4,1.4,1.4h3.5c0.8,0,1.4-0.7,1.4-1.4V22.5L188,42.2c0.1,0.2,0.5,0.4,1.1,0.4h4.8
	c1.3,0,1.6-1.4,1.1-2l-18.4-20.2L194,2.8c0.8-0.9,0.2-2.2-0.8-2.2h-4.5c-0.5,0-0.9,0.3-1.1,0.6l-16.9,17.5V2c0-0.8-0.7-1.4-1.4-1.4
	h-3.5c-0.8,0-1.4,0.7-1.4,1.4V41.2z"/>
</svg>
