<?xml version="1.0" encoding="utf-8"?>
<!-- Generator: Adobe Illustrator 28.1.0, SVG Export Plug-In . SVG Version: 6.00 Build 0)  -->
<svg version="1.1" id="レイヤー_1" xmlns="http://www.w3.org/2000/svg" xmlns:xlink="http://www.w3.org/1999/xlink" x="0px"
	 y="0px" viewBox="0 0 27 27" style="enable-background:new 0 0 27 27;" xml:space="preserve">
<g>
	<path d="M17.9,12.9l-3.6,3.7V8.6c0-0.4-0.3-0.8-0.8-0.8s-0.8,0.3-0.8,0.8v8.1l-3.6-3.7c-0.3-0.3-0.8-0.3-1.1,0
		c-0.3,0.3-0.3,0.8,0,1.1l5.5,5.6l5.5-5.6c0.3-0.3,0.3-0.8,0-1.1C18.7,12.6,18.2,12.6,17.9,12.9z"/>
	<path d="M26.7,10.9C26.6,10,26.3,9.1,26,8.3c-0.3-0.8-0.8-1.6-1.2-2.3c-0.5-0.7-1.1-1.4-1.7-2s-1.3-1.2-2-1.7
		c-0.7-0.5-1.5-0.9-2.3-1.2c-0.8-0.3-1.7-0.6-2.5-0.8c-1.7-0.3-3.5-0.3-5.3,0C10,0.4,9.2,0.7,8.3,1C7.5,1.4,6.7,1.8,6,2.3
		C5.3,2.8,4.6,3.3,4,4C3.3,4.6,2.8,5.3,2.3,6C1.8,6.7,1.4,7.5,1,8.3C0.7,9.1,0.4,10,0.3,10.9C0.1,11.7,0,12.6,0,13.5
		c0,0.9,0.1,1.8,0.3,2.6C0.4,17,0.7,17.8,1,18.7c0.3,0.8,0.8,1.6,1.2,2.3c0.5,0.7,1.1,1.4,1.7,2c0.6,0.6,1.3,1.2,2,1.7
		c0.7,0.5,1.5,0.9,2.3,1.2c0.8,0.3,1.7,0.6,2.5,0.8c0.9,0.2,1.8,0.3,2.6,0.3s1.8-0.1,2.6-0.3c0.9-0.2,1.7-0.4,2.5-0.8
		c0.8-0.3,1.6-0.8,2.3-1.2c0.7-0.5,1.4-1.1,2-1.7c0.6-0.6,1.2-1.3,1.7-2c0.5-0.7,0.9-1.5,1.2-2.3c0.3-0.8,0.6-1.7,0.8-2.5
		c0.2-0.9,0.3-1.8,0.3-2.6C27,12.6,26.9,11.7,26.7,10.9z M25.3,15.8c-0.2,0.8-0.4,1.5-0.7,2.3c-0.3,0.7-0.7,1.4-1.1,2.1
		C23,20.8,22.5,21.4,22,22c-0.6,0.6-1.2,1.1-1.8,1.5c-0.7,0.4-1.3,0.8-2.1,1.1s-1.5,0.5-2.3,0.7c-1.5,0.3-3.1,0.3-4.7,0
		c-0.8-0.2-1.5-0.4-2.3-0.7s-1.4-0.7-2.1-1.1C6.2,23,5.6,22.5,5,22c-0.6-0.6-1.1-1.2-1.5-1.8c-0.4-0.7-0.8-1.4-1.1-2.1
		c-0.3-0.7-0.5-1.5-0.7-2.3c-0.2-0.8-0.2-1.6-0.2-2.3c0-0.8,0.1-1.6,0.2-2.3c0.2-0.8,0.4-1.5,0.7-2.3c0.3-0.7,0.7-1.4,1.1-2.1
		C4,6.2,4.5,5.6,5,5C5.6,4.5,6.2,4,6.8,3.5c0.7-0.4,1.4-0.8,2.1-1.1c0.7-0.3,1.5-0.5,2.3-0.7c0.8-0.2,1.6-0.2,2.3-0.2
		s1.6,0.1,2.3,0.2c0.8,0.2,1.5,0.4,2.3,0.7c0.7,0.3,1.4,0.7,2.1,1.1C20.8,4,21.4,4.5,22,5s1.1,1.2,1.5,1.8c0.4,0.7,0.8,1.3,1.1,2.1
		c0.3,0.7,0.5,1.5,0.7,2.3c0.2,0.8,0.2,1.6,0.2,2.3C25.5,14.3,25.4,15.1,25.3,15.8z"/>
</g>
</svg>
