<?xml version="1.0" encoding="utf-8"?>
<!-- Generator: Adobe Illustrator 16.0.4, SVG Export Plug-In . SVG Version: 6.00 Build 0)  -->
<!DOCTYPE svg PUBLIC "-//W3C//DTD SVG 1.1//EN" "http://www.w3.org/Graphics/SVG/1.1/DTD/svg11.dtd">
<svg version="1.1" id="レイヤー_1" xmlns="http://www.w3.org/2000/svg" xmlns:xlink="http://www.w3.org/1999/xlink" x="0px"
	 y="0px" width="62.626px" height="14.4px" viewBox="0 0 62.626 14.4" enable-background="new 0 0 62.626 14.4"
	 xml:space="preserve">
<path fill="#FFFFFF" d="M0.007,13.74c-0.04,0.28,0.1,0.46,0.38,0.46h1.3c0.16,0,0.34-0.141,0.36-0.279l1.44-8.941
	c0.02,0,0.06,0,0.08,0l3.62,9.201c0.04,0.119,0.18,0.22,0.34,0.22h0.36c0.18,0,0.3-0.101,0.34-0.22l3.6-9.201c0,0,0.04,0,0.06,0
	l1.48,8.941c0.04,0.139,0.2,0.279,0.38,0.279h1.3c0.28,0,0.42-0.18,0.36-0.46L12.947,0.3c-0.04-0.16-0.2-0.3-0.36-0.3h-0.32
	c-0.14,0-0.3,0.1-0.34,0.22l-4.16,10.22h-0.08L3.507,0.22C3.467,0.1,3.287,0,3.167,0h-0.32c-0.16,0-0.32,0.14-0.36,0.3L0.007,13.74z
	"/>
<path fill="#FFFFFF" d="M21.327,7.22c0-2.84,2.34-5.22,5.18-5.22c2.86,0,5.2,2.38,5.2,5.22c0,2.86-2.34,5.18-5.2,5.18
	C23.667,12.4,21.327,10.08,21.327,7.22z M19.327,7.22c0,4,3.18,7.18,7.18,7.18s7.2-3.181,7.2-7.18c0-4-3.2-7.22-7.2-7.22
	S19.327,3.22,19.327,7.22z"/>
<path fill="#FFFFFF" d="M40.667,7V2.14h3.561c1.3,0,2.439,1.08,2.439,2.38c0,1.38-1.14,2.48-2.439,2.48H40.667z M38.567,13.82
	c0,0.2,0.16,0.38,0.38,0.38h1.3c0.2,0,0.38-0.18,0.38-0.38V8.72h3.021l2.66,5.301c0.04,0.08,0.159,0.18,0.319,0.18h1.561
	c0.34,0,0.479-0.32,0.34-0.58l-2.74-5.08c1.74-0.7,2.96-2.22,2.96-4.06c0-2.38-1.96-4.28-4.36-4.28h-5.439
	c-0.22,0-0.38,0.18-0.38,0.38V13.82z"/>
<path fill="#FFFFFF" d="M53.867,13.82c0,0.2,0.16,0.38,0.38,0.38h8c0.22,0,0.38-0.18,0.38-0.38V12.72c0-0.199-0.16-0.379-0.38-0.379
	h-6.32V8.04h5.341c0.199,0,0.38-0.16,0.38-0.38V6.54c0-0.2-0.181-0.38-0.38-0.38h-5.341V2.08h6.32c0.22,0,0.38-0.18,0.38-0.38V0.58
	c0-0.2-0.16-0.38-0.38-0.38h-8c-0.22,0-0.38,0.18-0.38,0.38V13.82z"/>
</svg>
