<?xml version="1.0" encoding="utf-8"?>
<!-- Generator: Adobe Illustrator 16.0.4, SVG Export Plug-In . SVG Version: 6.00 Build 0)  -->
<!DOCTYPE svg PUBLIC "-//W3C//DTD SVG 1.1//EN" "http://www.w3.org/Graphics/SVG/1.1/DTD/svg11.dtd">
<svg version="1.1" id="レイヤー_1" xmlns="http://www.w3.org/2000/svg" xmlns:xlink="http://www.w3.org/1999/xlink" x="0px"
	 y="0px" width="62.625px" height="14.399px" viewBox="0 0 62.625 14.399" enable-background="new 0 0 62.625 14.399"
	 xml:space="preserve">
<path fill="#6FBA2C" d="M0.007,13.74c-0.04,0.28,0.1,0.46,0.38,0.46h1.3c0.16,0,0.34-0.141,0.36-0.279l1.44-8.941
	c0.02,0,0.06,0,0.08,0l3.62,9.201c0.04,0.119,0.18,0.221,0.34,0.221h0.36c0.18,0,0.3-0.102,0.34-0.221l3.6-9.201c0,0,0.04,0,0.06,0
	l1.48,8.941c0.04,0.139,0.2,0.279,0.38,0.279h1.3c0.28,0,0.42-0.18,0.36-0.46L12.947,0.3c-0.04-0.16-0.2-0.3-0.36-0.3h-0.32
	c-0.14,0-0.3,0.1-0.34,0.22l-4.16,10.22h-0.08L3.507,0.22C3.467,0.1,3.287,0,3.167,0h-0.32c-0.16,0-0.32,0.14-0.36,0.3L0.007,13.74z
	"/>
<path fill="#6FBA2C" d="M21.327,7.22c0-2.84,2.34-5.22,5.18-5.22c2.86,0,5.2,2.38,5.2,5.22c0,2.86-2.34,5.179-5.2,5.179
	C23.667,12.399,21.327,10.08,21.327,7.22z M19.327,7.22c0,4,3.18,7.179,7.18,7.179s7.201-3.18,7.201-7.179
	c0-4-3.201-7.22-7.201-7.22S19.327,3.22,19.327,7.22z"/>
<path fill="#6FBA2C" d="M40.667,7V2.14h3.562c1.3,0,2.438,1.08,2.438,2.38c0,1.38-1.14,2.48-2.438,2.48H40.667z M38.567,13.819
	c0,0.201,0.16,0.381,0.38,0.381h1.3c0.2,0,0.381-0.18,0.381-0.381v-5.1h3.021l2.66,5.301c0.04,0.08,0.159,0.181,0.319,0.181h1.561
	c0.34,0,0.479-0.32,0.34-0.58l-2.74-5.08c1.74-0.7,2.961-2.22,2.961-4.06c0-2.38-1.961-4.28-4.36-4.28H38.95
	c-0.221,0-0.381,0.18-0.381,0.38v13.238H38.567z"/>
<path fill="#6FBA2C" d="M53.868,13.819c0,0.201,0.159,0.381,0.379,0.381h8c0.221,0,0.381-0.18,0.381-0.381v-1.1
	c0-0.199-0.16-0.379-0.381-0.379h-6.32V8.04h5.342c0.199,0,0.38-0.16,0.38-0.38V6.54c0-0.2-0.181-0.38-0.38-0.38h-5.342V2.08h6.32
	c0.221,0,0.381-0.18,0.381-0.38V0.58c0-0.2-0.16-0.38-0.381-0.38h-8c-0.22,0-0.379,0.18-0.379,0.38V13.819z"/>
</svg>
